<?xml version="1.0" encoding="iso-8859-1"?>
<!-- Generator: Adobe Illustrator 16.0.0, SVG Export Plug-In . SVG Version: 6.00 Build 0)  -->
<!DOCTYPE svg PUBLIC "-//W3C//DTD SVG 1.1//EN" "http://www.w3.org/Graphics/SVG/1.1/DTD/svg11.dtd">
<svg version="1.1" id="Layer_1" xmlns="http://www.w3.org/2000/svg" xmlns:xlink="http://www.w3.org/1999/xlink" x="0px" y="0px"
	 width="800px" height="100px" viewBox="0 0 800 100" style="enable-background:new 0 0 800 100;" xml:space="preserve">
<g>
	<path d="M89.921,51.93c-2.667,15.127-8.469,26.754-17.402,34.881C63.583,94.938,52.115,99,38.112,99S14.074,94.938,8.006,86.811
		c-6.069-8.127-7.763-19.795-5.081-35.006c2.682-15.211,8.491-26.828,17.429-34.851C29.291,8.931,40.781,4.92,54.826,4.92
		c14.044,0,24.073,4.043,30.087,12.127C90.926,25.132,92.596,36.76,89.921,51.93z M23.221,51.93
		c-1.8,10.21-1.219,17.898,1.746,23.066c2.964,5.168,8.301,7.752,16.011,7.752c15.461,0,25.003-10.273,28.626-30.818
		c3.63-20.587-2.244-30.881-17.622-30.881c-7.71,0-13.981,2.594-18.813,7.783C28.337,34.019,25.021,41.719,23.221,51.93z"/>
	<path d="M161.857,97.75h-19.066l9.799-55.573h-17.566c-4.09,15.627-7.771,27.288-11.043,34.975
		c-3.273,7.689-6.807,13.252-10.601,16.691C109.585,97.281,105.104,99,99.937,99c-4.418,0-7.925-0.666-10.524-2l2.689-15.252
		c1.894,0.834,3.864,1.25,5.906,1.25c2.376,0,4.667-1.709,6.874-5.127c2.207-3.416,4.649-9.115,7.328-17.098
		c2.679-7.979,5.707-18.95,9.085-32.912h52.886L161.857,97.75z"/>
	<path d="M212.625,27.862l-4.872,27.63c-0.515,2.918-2.251,10.045-5.208,21.379l40.898-49.009h22.941L254.062,97.75h-18.44
		l4.916-27.879c0.875-4.959,2.525-11.961,4.954-21.005l-40.75,48.884h-22.88l12.323-69.888H212.625z"/>
	<path d="M362.146,97.75H344.33l9.711-55.073l-1.684,3.876c-3.802,8.794-6.995,15.441-9.58,19.941L324.889,97.75h-13.565
		l-7.01-31.506c-0.983-4.584-1.767-11.021-2.345-19.316l-0.438-4.251L291.82,97.75h-17.754l12.323-69.888h26.255l6.745,29.818
		c0.684,3.21,1.189,6.898,1.518,11.064c0.328,4.168,0.419,7.732,0.272,10.689c2.477-6.25,4.341-10.74,5.594-13.471
		c1.253-2.729,2.539-5.24,3.86-7.533c1.32-2.291,7.265-12.48,17.83-30.568h26.006L362.146,97.75z"/>
	<path d="M457.986,27.862L445.663,97.75h-19.129l9.799-55.573h-25.317l-9.799,55.573H382.15l12.323-69.888H457.986z"/>
	<path d="M539.432,97.75h-19.316l13.271-75.264h-33.632L486.483,97.75h-19.379l16.114-91.392h72.327L539.432,97.75z"/>
	<path d="M623.573,97.75h-19.066l9.799-55.573h-17.566c-4.09,15.627-7.771,27.288-11.043,34.975
		c-3.273,7.689-6.807,13.252-10.601,16.691C571.301,97.281,566.819,99,561.652,99c-4.418,0-7.926-0.666-10.524-2l2.689-15.252
		c1.894,0.834,3.863,1.25,5.905,1.25c2.376,0,4.667-1.709,6.874-5.127c2.207-3.416,4.649-9.115,7.328-17.098
		c2.679-7.979,5.707-18.95,9.086-32.912h52.886L623.573,97.75z"/>
	<path d="M687.96,97.75l-2.014-9.502h-0.5c-3.923,4.043-7.719,6.846-11.391,8.408C670.383,98.221,665.817,99,660.358,99
		c-6.71,0-11.654-1.916-14.833-5.75c-3.18-3.834-4.144-9.293-2.895-16.379c1.309-7.418,4.867-12.887,10.677-16.408
		s13.977-5.471,24.504-5.846l12.194-0.375l0.539-3.063c1.25-7.085-1.752-10.628-9.003-10.628c-5.586,0-12.446,1.688-20.584,5.063
		l-4.044-12.877c8.785-4.208,18.075-6.313,27.869-6.313c9.377,0,16.205,2.042,20.486,6.126c4.281,4.084,5.687,10.294,4.217,18.629
		l-8.211,46.57H687.96z M688.043,65.369l-7.421,0.25c-5.572,0.168-9.875,1.168-12.906,3c-3.033,1.834-4.879,4.627-5.54,8.377
		c-0.948,5.377,1.662,8.064,7.83,8.064c4.417,0,8.172-1.27,11.268-3.813c3.094-2.543,5.014-5.918,5.756-10.127L688.043,65.369z"/>
	<path d="M752.294,27.862l-4.74,26.88h26.63l4.74-26.88h19.066L785.667,97.75h-19.066l5.081-28.818h-26.63l-5.081,28.818h-19.066
		l12.323-69.888H752.294z"/>
</g>
</svg>
